<svg width="588" height="116" viewBox="0 0 588 116" fill="none" xmlns="http://www.w3.org/2000/svg">
<path d="M313.174 73.333C305.626 73.333 303.369 71.557 303.554 65.415H308.179C308.364 68.375 309.437 69.263 313.174 69.3C316.874 69.337 318.021 68.708 318.021 66.303C318.021 64.12 316.504 63.047 311.657 61.604C305.589 59.791 303.776 58.126 303.776 54.204C303.776 49.024 305.922 47.47 313.026 47.47C319.908 47.47 322.165 48.987 322.128 54.574H317.429C317.244 52.206 316.245 51.503 312.878 51.503C309.437 51.503 308.401 52.132 308.401 54.352C308.401 55.832 310.177 56.757 314.913 58.237C320.87 60.087 322.646 61.9 322.646 66.266C322.646 71.705 320.463 73.333 313.174 73.333ZM331.808 73V52.058H325.074V47.84H343.278V52.058H336.544V73H331.808ZM344.817 73L351.958 47.84H358.544L365.833 73H361.171L359.543 67.45H351.033L349.442 73H344.817ZM352.143 63.343H358.47L355.251 52.132H355.214L352.143 63.343ZM367.817 73V47.877L372.22 47.729C381.914 47.396 384.8 49.061 384.837 54.944C384.874 58.829 383.875 60.124 380.508 60.605V60.938C382.617 61.271 383.394 62.27 384.171 65.156L386.28 73H381.211L379.472 65.489C378.991 63.343 377.955 62.714 374.884 62.714H372.516V73H367.817ZM372.516 58.607H377.289C379.509 58.607 380.175 57.719 380.175 54.944C380.175 52.761 379.509 52.058 377.215 51.91C374.847 51.762 373.774 51.762 372.516 51.836V58.607ZM395.034 73V52.058H388.3V47.84H406.504V52.058H399.77V73H395.034ZM418.663 73.333C411.448 73.333 409.302 71.372 409.302 64.823V47.84H414.038V64.638C414.038 68.153 415.111 69.189 418.663 69.189C421.956 69.189 422.918 68.153 422.918 64.675V47.84H427.654V64.786C427.654 71.372 425.582 73.333 418.663 73.333ZM431.265 47.84C435.113 47.766 436.445 47.729 437.037 47.729C446.176 47.729 448.877 49.579 448.877 55.832C448.877 62.011 446.546 63.824 438.702 63.824H436.001V73H431.265V47.84ZM436.001 59.717H438.332C442.846 59.717 444.178 58.792 444.178 55.684C444.178 52.724 442.698 51.836 437.666 51.836H436.001V59.717ZM482.629 73.333C474.563 73.333 472.195 70.373 472.195 60.42C472.195 50.43 474.452 47.47 482 47.47C488.771 47.47 490.88 49.135 491.176 54.796H486.588C486.366 52.28 485.33 51.54 482.037 51.54C478.041 51.54 476.857 53.612 476.857 60.531C476.857 67.265 478.152 69.263 482.518 69.263C484.442 69.263 485.367 69.078 486.625 68.523V62.862H481.408V58.829H491.102V71.372C487.809 72.889 485.885 73.333 482.629 73.333ZM494.27 73V47.877L498.673 47.729C508.367 47.396 511.253 49.061 511.29 54.944C511.327 58.829 510.328 60.124 506.961 60.605V60.938C509.07 61.271 509.847 62.27 510.624 65.156L512.733 73H507.664L505.925 65.489C505.444 63.343 504.408 62.714 501.337 62.714H498.969V73H494.27ZM498.969 58.607H503.742C505.962 58.607 506.628 57.719 506.628 54.944C506.628 52.761 505.962 52.058 503.668 51.91C501.3 51.762 500.227 51.762 498.969 51.836V58.607ZM516.899 73V68.893H521.524V51.947H517.158V47.84H530.515V51.947H526.149V68.893H530.774V73H516.899ZM541.86 73.296C540.491 73.296 539.196 73.259 535.829 73V47.84C539.492 47.618 541.342 47.618 543.895 47.877C552.183 48.691 554.662 51.614 554.662 60.753C554.662 70.521 551.739 73.407 541.86 73.296ZM540.565 69.115C542.193 69.226 542.859 69.263 543.488 69.226C548.409 68.967 549.889 66.969 549.889 60.494C549.889 54.389 548.483 52.428 543.747 51.947C542.23 51.799 541.527 51.762 540.565 51.762V69.115Z" fill="#A2A2A2"/>
<rect x="286.796" y="62.6112" width="5.20381" height="5.20381" transform="rotate(90 286.796 62.6112)" fill="#2ECC71"/>
<rect x="271.408" y="62.6112" width="5.20381" height="5.20381" transform="rotate(90 271.408 62.6112)" fill="#2ECC71"/>
<rect x="281.592" y="67.8157" width="5.20381" height="5.20381" transform="rotate(90 281.592 67.8157)" fill="#2ECC71"/>
<rect x="266.204" y="67.8157" width="5.20381" height="5.20381" transform="rotate(90 266.204 67.8157)" fill="#2ECC71"/>
<rect x="292" y="57.4062" width="5.20381" height="5.20381" transform="rotate(90 292 57.4062)" fill="#2ECC71"/>
<rect x="276.611" y="57.4062" width="5.20381" height="5.20381" transform="rotate(90 276.611 57.4062)" fill="#2ECC71"/>
<rect x="281.592" y="47" width="5.20381" height="5.20381" transform="rotate(90 281.592 47)" fill="#2ECC71"/>
<rect x="266.204" y="47" width="5.20381" height="5.20381" transform="rotate(90 266.204 47)" fill="#2ECC71"/>
<rect x="286.796" y="52.204" width="5.20381" height="5.20381" transform="rotate(90 286.796 52.204)" fill="#2ECC71"/>
<rect x="271.408" y="52.204" width="5.20381" height="5.20381" transform="rotate(90 271.408 52.204)" fill="#2ECC71"/>
<rect x="34.6338" y="67.1746" width="18.0199" height="6.20729" fill="white"/>
<rect x="58.8301" y="45.4491" width="20.5942" height="6.2073" fill="white"/>
<rect width="21.6748" height="6.19279" transform="matrix(0.705447 -0.708762 0.705447 0.708762 48.0176 47.3622)" fill="white"/>
<rect width="16.6461" height="6.19279" transform="matrix(-0.705447 -0.708762 -0.705447 0.708762 48.1123 62.8804)" fill="white"/>
<rect width="17.5463" height="6.1928" transform="matrix(-0.705447 0.708762 -0.705447 -0.708762 63.5586 71.5638)" fill="white"/>
<rect width="19.6105" height="6.19279" transform="matrix(0.705447 0.708762 0.705447 -0.708762 63.4639 56.0457)" fill="white"/>
<rect x="48.0176" y="40.7938" width="15.001" height="6.17826" transform="rotate(90 48.0176 40.7938)" fill="white"/>
<rect x="69.6436" y="62.5192" width="18.6219" height="6.17826" transform="rotate(90 69.6436 62.5192)" fill="white"/>
<path fill-rule="evenodd" clip-rule="evenodd" d="M95.3174 73.1261C98.1635 73.1261 100.555 73.1261 102.556 73.1261C106.651 73.1892 109.729 72.9599 111.917 72.0138C114.136 71.0362 115.7 69.412 116.606 67.1413C117.544 64.8706 118.013 61.5908 118.013 57.3017C118.013 53.328 117.622 50.0309 116.841 47.7918C116.059 45.5527 114.73 43.897 112.855 42.8247C111.01 41.7209 108.384 40.9955 104.977 40.6486C103.414 40.4909 101.898 40.4121 100.429 40.4121C98.9593 40.3806 97.2148 40.4121 95.3174 40.4121V73.1261ZM109.619 67.4725C108.494 68.1978 106.931 68.6236 104.93 68.7497C104.336 68.8128 103.695 68.8285 103.008 68.797C102.351 68.7655 101.523 68.7182 100.522 68.6551V45.1441C101.835 45.1441 103.273 45.2229 104.836 45.3806C106.931 45.6329 108.541 46.1375 109.666 46.8944C110.792 47.6513 111.589 48.8182 112.058 50.395C112.527 51.9404 112.761 54.1164 112.761 56.9232C112.761 59.8877 112.511 62.2057 112.011 63.8772C111.542 65.5171 110.745 66.7156 109.619 67.4725Z" fill="white"/>
<path fill-rule="evenodd" clip-rule="evenodd" d="M122.503 72.7234C123.691 73.1649 125.363 73.3857 127.52 73.3857C129.427 73.3857 130.881 73.1492 131.881 72.6761C132.881 72.1715 133.803 71.2569 134.647 69.9324H135.023V73.1506H139.618V56.4029C139.618 54.1007 139.321 52.3346 138.727 51.1046C138.133 49.8431 137.117 48.9601 135.679 48.4555C134.272 47.9194 132.272 47.6513 129.677 47.6513C127.114 47.6513 125.129 47.8878 123.722 48.3609C122.346 48.8024 121.377 49.5751 120.815 50.6789C120.252 51.7511 119.875 53.3001 119.875 55.3148H125.082C125.082 53.9903 125.394 53.0915 126.019 52.6184C126.676 52.1454 127.895 51.9088 129.677 51.9088C131.021 51.9088 132.068 52.0507 132.819 52.3346C133.569 52.6184 134.1 53.0757 134.413 53.7064C134.726 54.3372 134.882 55.236 134.882 56.4029V57.0652H130.896C127.864 57.0652 125.519 57.3332 123.862 57.8694C122.206 58.374 121.033 59.2728 120.346 60.5658C119.658 61.8273 119.314 63.6091 119.314 65.9114C119.314 67.8667 119.548 69.3805 120.017 70.4527C120.518 71.525 121.346 72.2819 122.503 72.7234ZM132.303 68.324C131.428 68.797 130.162 69.0335 128.505 69.0335C126.879 69.0335 125.769 68.7812 125.175 68.2766C124.581 67.7721 124.284 66.8417 124.284 65.4856C124.284 64.3818 124.456 63.5461 124.8 62.9784C125.144 62.3792 125.707 61.9534 126.488 61.7011C127.301 61.4488 128.442 61.3069 129.911 61.2754L134.835 61.2281C134.773 63.278 134.554 64.8549 134.179 65.9587C133.803 67.0625 133.178 67.8509 132.303 68.324Z" fill="white"/>
<path fill-rule="evenodd" clip-rule="evenodd" d="M181.75 72.2503C183.345 73.0072 185.611 73.3857 188.55 73.3857C191.457 73.3857 193.708 73.0072 195.302 72.2503C196.896 71.4619 198.022 70.1689 198.678 68.3713C199.366 66.5421 199.71 63.9403 199.71 60.5658C199.71 57.1598 199.366 54.5422 198.678 52.713C198.022 50.8839 196.896 49.5908 195.302 48.8339C193.739 48.0455 191.488 47.6513 188.55 47.6513C185.611 47.6513 183.345 48.0455 181.75 48.8339C180.156 49.5908 179.031 50.8839 178.374 52.713C177.718 54.5422 177.389 57.1598 177.389 60.5658C177.389 63.9403 177.718 66.5421 178.374 68.3713C179.031 70.2004 180.156 71.4934 181.75 72.2503ZM192.254 68.2766C191.41 68.7812 190.175 69.0335 188.55 69.0335C186.924 69.0335 185.674 68.7812 184.798 68.2766C183.923 67.7721 183.298 66.9205 182.923 65.7221C182.547 64.5237 182.36 62.8049 182.36 60.5658C182.36 58.2951 182.547 56.5606 182.923 55.3622C183.298 54.1322 183.923 53.2649 184.798 52.7603C185.674 52.2242 186.924 51.9561 188.55 51.9561C190.175 51.9561 191.41 52.2242 192.254 52.7603C193.129 53.2649 193.754 54.1322 194.13 55.3622C194.505 56.5606 194.692 58.2951 194.692 60.5658C194.692 62.8049 194.505 64.5237 194.13 65.7221C193.754 66.9205 193.129 67.7721 192.254 68.2766Z" fill="white"/>
<path d="M201.431 47.885H206.448V51.7669H206.823C207.605 50.1585 208.48 49.0705 209.449 48.5028C210.449 47.9351 211.887 47.6513 213.763 47.6513C216.014 47.6513 217.749 47.9509 218.968 48.5501C220.187 49.1178 221.063 50.0797 221.594 51.4358C222.125 52.7919 222.391 54.7314 222.391 57.2544V73.1506H217.374V57.1598C217.374 55.8667 217.233 54.8576 216.952 54.1322C216.67 53.4068 216.186 52.9022 215.498 52.6184C214.81 52.3346 213.826 52.1927 212.544 52.1927C210.95 52.1927 209.715 52.4292 208.84 52.9022C207.995 53.3753 207.386 54.1795 207.011 55.3148C206.636 56.4502 206.448 58.0586 206.448 60.14V73.1506H201.431V47.885Z" fill="white"/>
<path fill-rule="evenodd" clip-rule="evenodd" d="M227.531 72.7234C228.719 73.1649 230.391 73.3857 232.548 73.3857C234.455 73.3857 235.909 73.1492 236.909 72.6761C237.909 72.1715 238.832 71.2569 239.676 69.9324H240.051V73.1506H244.646V56.4029C244.646 54.1007 244.349 52.3346 243.755 51.1046C243.161 49.8431 242.145 48.9601 240.707 48.4555C239.301 47.9194 237.3 47.6513 234.705 47.6513C232.142 47.6513 230.157 47.8878 228.75 48.3609C227.375 48.8024 226.405 49.5751 225.843 50.6789C225.28 51.7511 225.008 53.1094 225.008 55.3148H230.11C230.11 53.9903 230.422 53.0915 231.048 52.6184C231.704 52.1454 232.923 51.9088 234.705 51.9088C236.049 51.9088 237.097 52.0507 237.847 52.3346C238.597 52.6184 239.129 53.0757 239.441 53.7064C239.754 54.3372 239.91 55.236 239.91 56.4029V57.0652H235.924C232.892 57.0652 230.548 57.3332 228.891 57.8694C227.234 58.374 226.062 59.2728 225.374 60.5658C224.686 61.8273 224.342 63.6091 224.342 65.9114C224.342 67.8667 224.577 69.3805 225.046 70.4527C225.546 71.525 226.374 72.2819 227.531 72.7234ZM237.331 68.324C236.456 68.797 235.19 69.0335 233.533 69.0335C231.907 69.0335 230.798 68.7812 230.204 68.2766C229.61 67.7721 229.313 66.8417 229.313 65.4856C229.313 64.3818 229.485 63.5461 229.829 62.9784C230.172 62.3792 230.735 61.9534 231.517 61.7011C232.329 61.4488 233.47 61.3069 234.94 61.2754L239.863 61.2281C239.801 63.278 239.582 64.8549 239.207 65.9587C238.832 67.0625 238.206 67.8509 237.331 68.324Z" fill="white"/>
<path d="M161.453 47.8329H156.624L151.88 68.6121H150.154L145.6 47.8329H140.856L144.715 67.5604C145.339 70.7515 148.136 73.0538 151.387 73.0538L150.362 76.2881C149.869 77.572 149.676 78.9064 147.19 78.9064H144.082V83.0051L149.841 83.0648C151.577 83.0349 153.759 81.7659 155.382 76.2881L161.453 47.8329Z" fill="white"/>
<path d="M168.544 72.3575C169.649 72.9283 171.275 73.2138 173.421 73.2138H176.304V68.8846H174.984C173.721 68.8846 172.774 68.7419 172.143 68.4565C171.512 68.171 171.085 67.7587 170.864 67.2196C170.675 66.6487 170.58 65.84 170.58 64.7933V52.0438H176.304V47.8574H170.58V42.5292L165.987 42.5292V47.8574H163.72L162.866 52.0438H165.798V64.9836C165.798 67.0134 165.987 68.615 166.366 69.7885C166.745 70.9303 167.471 71.7866 168.544 72.3575Z" fill="white"/>
</svg>
